P3
4 4
255
155 0 155  155 0 155  155 0 155  155 0 155  
155 0 155  255 255 255  255 255 255  155 0 155  
155 0 155  255 255 255  255 255 255  155 0 155  
155 0 155  155 0 155  155 0 155  155 0 155  
